#!OML:ASF E:\Steps\Project 1\Capture day 1\Session 2\Subject.ASF
:FULLY-SPECIFIED
:DEGREES
187
root 17.2165 16.4584 22.2769 -157.724 -9.81671 175.472
lowerback -20.4072 -0.625447 -7.14144
upperback 1.90576 0.969702 -0.741317
thorax 13.6118 -0.0960306 3.53458
lowerneck -3.7538 -0.206757 -2.37215
upperneck 20.3326 -2.41374 5.65715
head 6.88871 -1.37038 1.99932
rclavicle 2.35933e-014 -2.49972e-014
rhumerus -33.6882 -18.5152 -76.6292
rradius 29.9819
rwrist 1.76463
rhand -9.60023 -414.887
rfingers 7.12502
rthumb -163.631 95.7839
lclavicle 2.35933e-014 -2.49972e-014
lhumerus -27.0044 1.37487 83.2349
lradius 23.1436
lwrist -2.57564
lhand -23.0058 -12.8988
lfingers 7.12502
lthumb 3.43753 17.0532
rfemur -22.002 2.58373 20.4061
rtibia 7.85318
rfoot -17.1057 -5.60853
rtoes 0.353706
lfemur -56.0886 -11.1153 -20.6517
ltibia 70.3531
lfoot -17.2782 4.87099
ltoes -46.4006
188
root 17.2078 16.4407 22.3145 -156.583 -9.00757 175.829
lowerback -21.2873 -0.245521 -6.63879
upperback 1.56743 1.39334 -0.819395
thorax 13.6855 0.133578 3.30536
lowerneck -3.72979 -0.181791 -2.35484
upperneck 20.3214 -2.38621 5.69104
head 6.87977 -1.35318 2.00947
rclavicle -2.73329e-016 -8.74653e-015
rhumerus -33.6464 -18.6213 -76.6247
rradius 30.0311
rwrist 1.38159
rhand -8.32121 -417.468
rfingers 7.12502
rthumb -162.4 93.3083
lclavicle -2.73329e-016 -8.74653e-015
lhumerus -27.112 1.06692 83.2119
lradius 23.1193
lwrist -2.35901
lhand -23.0039 -12.9762
lfingers 7.12502
lthumb 3.4393 16.9758
rfemur -24.2271 2.64057 20.6484
rtibia 8.98425
rfoot -17.1229 -4.79337
rtoes -0.107983
lfemur -58.9859 -9.96501 -20.348
ltibia 72.8028
lfoot -17.861 5.3165
ltoes -45.7869
189
root 17.2206 16.4736 22.2878 -157.959 -10.0331 175.458
lowerback -19.8758 -0.568579 -7.01002
upperback 2.04856 0.984643 -0.742114
thorax 13.4679 -0.0718192 3.45753
lowerneck -3.69532 -0.213089 -2.31739
upperneck 20.3816 -2.43383 5.62292
head 6.89435 -1.38155 1.97785
rclavicle -8.44835e-015 3.34455e-014
rhumerus -33.6096 -18.4554 -76.679
rradius 30.2353
rwrist 1.12704
rhand -8.77431 -416.591
rfingers 7.12502
rthumb -162.836 94.1467
lclavicle -8.44835e-015 3.34455e-014
lhumerus -27.2651 1.02329 83.12
lradius 23.0787
lwrist -2.10534
lhand -22.6759 -12.9131
lfingers 7.12502
lthumb 3.75613 17.0336
rfemur -21.7842 3.30594 20.2681
rtibia 7.92639
rfoot -17.1091 -6.57386
rtoes -0.323597
lfemur -58.2548 -10.4922 -20.569
ltibia 74.4624
lfoot -18.3225 4.87275
ltoes -44.4741
190
root 17.2122 16.459 22.3162 -156.885 -9.10574 175.65
lowerback -20.6891 -0.222603 -6.62775
upperback 1.66973 1.39544 -0.899636
thorax 13.4601 0.149792 3.19883
lowerneck -3.5626 -0.290942 -2.20505
upperneck 20.5264 -2.56306 5.46599
head 6.92097 -1.45851 1.89913
rclavicle -4.72114e-016 2.81777e-014
rhumerus -33.7726 -18.1648 -76.807
rradius 30.6644
rwrist 0.894467
rhand -10.7692 -412.959
rfingers 7.12502
rthumb -164.757 97.623
lclavicle -4.72114e-016 2.81777e-014
lhumerus -27.6102 1.19796 82.8937
lradius 23.0676
lwrist -2.23692
lhand -22.3687 -12.9537
lfingers 7.12502
lthumb 4.05277 16.9875
rfemur -23.9178 3.05834 20.3717
rtibia 9.15054
rfoot -17.2154 -5.44063
rtoes -1.03504
lfemur -61.0349 -9.18936 -20.5586
ltibia 76.9134
lfoot -18.4326 5.29188
ltoes -44.342
191
root 17.2145 16.4654 22.3219 -156.85 -9.23396 175.28
lowerback -20.5145 -0.340079 -6.96831
upperback 1.69039 1.31382 -0.934966
thorax 13.3873 0.0906732 3.32373
lowerneck -3.41773 -0.27874 -2.20049
upperneck 20.5988 -2.54968 5.35969
head 6.91695 -1.46803 1.86541
rclavicle -2.88238e-014 2.03754e-014
rhumerus -33.9292 -17.9697 -76.7816
rradius 31.0298
rwrist 0.731746
rhand -10.34 -412.622
rfingers 7.12502
rthumb -164.344 97.991
lclavicle -2.88238e-014 2.03754e-014
lhumerus -27.8391 1.50678 82.7881
lradius 22.9086
lwrist -2.64162
lhand -22.3829 -13.3329
lfingers 7.12502
lthumb 4.03904 16.6085
rfemur -23.65 2.63459 20.0215
rtibia 8.6884
rfoot -16.9809 -5.41591
rtoes -1.94313
lfemur -62.0086 -9.17142 -20.79
ltibia 78.4929
lfoot -18.4498 5.23975
ltoes -43.3617
192
root 17.2121 16.472 22.3234 -156.836 -9.26327 174.952
lowerback -20.4671 -0.381915 -7.20204
upperback 1.778 1.3279 -1.02069
thorax 13.4602 0.0788794 3.36295
lowerneck -3.30293 -0.173529 -2.34239
upperneck 20.5043 -2.42283 5.57179
head 6.86341 -1.40297 1.96755
rclavicle -4.008e-014 2.92213e-014
rhumerus -33.9902 -17.9089 -76.8353
rradius 31.4341
rwrist 0.639755
rhand -10.1515 -412.854
rfingers 7.12502
rthumb -164.162 97.774
lclavicle -4.008e-014 2.92213e-014
lhumerus -27.8627 1.46734 82.7333
lradius 22.6481
lwrist -2.69822
lhand -22.7086 -13.7407
lfingers 7.12502
lthumb 3.72451 16.2065
rfemur -23.8101 2.67592 19.6155
rtibia 9.16443
rfoot -17.3129 -5.75218
rtoes -2.85355
lfemur -62.9498 -9.05527 -21.0026
ltibia 79.9951
lfoot -18.6745 4.9993
ltoes -42.375
193
root 17.2141 16.4773 22.3258 -156.881 -9.31524 174.795
lowerback -20.3695 -0.351584 -7.28961
upperback 1.86089 1.39505 -1.0742
thorax 13.4935 0.103453 3.37153
lowerneck -3.22528 -0.137664 -2.5361
upperneck 20.4753 -2.41561 5.87016
head 6.84373 -1.39403 2.09789
rclavicle -1.41634e-015 2.47487e-014
rhumerus -34.0353 -17.8102 -76.9281
rradius 31.8798
rwrist 0.480446
rhand -10.1623 -413.183
rfingers 7.12502
rthumb -164.173 97.4441
lclavicle -1.41634e-015 2.47487e-014
lhumerus -27.8632 1.20427 82.7337
lradius 22.31
lwrist -3.11404
lhand -23.8249 -13.9499
lfingers 7.12502
lthumb 2.64645 16.0134
rfemur -23.5981 2.57442 19.4444
rtibia 8.88381
rfoot -17.2126 -5.81474
rtoes -3.42215
lfemur -63.9002 -8.72262 -21.0675
ltibia 81.4681
lfoot -18.8152 5.19093
ltoes -43.4219
194
root 17.2164 16.4802 22.3299 -157.006 -9.4012 174.926
lowerback -20.2054 -0.276162 -7.04656
upperback 1.93826 1.43076 -1.06575
thorax 13.4882 0.139492 3.25222
lowerneck -3.19968 -0.193203 -2.6198
upperneck 20.5849 -2.55978 6.09715
head 6.88408 -1.45917 2.17588
rclavicle -4.4652e-014 6.06293e-015
rhumerus -33.9292 -17.6546 -77.0638
rradius 32.0581
rwrist 0.310258
rhand -10.344 -413.227
rfingers 7.12502
rthumb -164.348 97.386
lclavicle -4.4652e-014 6.06293e-015
lhumerus -27.7846 1.62618 82.4716
lradius 22.1905
lwrist -3.16223
lhand -23.4269 -13.5391
lfingers 7.12502
lthumb 3.03082 16.4191
rfemur -23.6725 3.03978 19.5467
rtibia 9.28814
rfoot -17.4514 -6.31975
rtoes -3.91186
lfemur -64.8495 -8.29519 -20.794
ltibia 82.938
lfoot -18.9753 5.52757
ltoes -44.7585
195
root 17.2224 16.4968 22.3123 -157.82 -10.0925 174.664
lowerback -19.3896 -0.493513 -7.19839
upperback 2.27311 1.13801 -1.05518
thorax 13.4336 -0.00435449 3.24979
lowerneck -3.26612 -0.2868 -2.55323
upperneck 20.6992 -2.72621 6.13047
head 6.94092 -1.53405 2.16352
rclavicle 1.24986e-014 1.03368e-014
rhumerus -33.706 -17.5708 -77.1958
rradius 31.9913
rwrist 0.163582
rhand -10.4941 -412.55
rfingers 7.12502
rthumb -164.492 98.0518
lclavicle 1.24986e-014 1.03368e-014
lhumerus -27.7547 2.04849 82.2066
lradius 21.9111
lwrist -3.57615
lhand -23.5111 -13.8194
lfingers 7.12502
lthumb 2.9495 16.14
rfemur -22.1469 3.38455 19.3184
rtibia 8.60743
rfoot -17.4631 -7.38727
rtoes -4.57538
lfemur -64.7281 -8.60752 -20.7272
ltibia 84.029
lfoot -19.0033 5.79873
ltoes -45.3766
196
root 17.213 16.5015 22.3296 -157.523 -9.73229 174.713
lowerback -19.4638 -0.36635 -6.95034
upperback 2.18732 1.25384 -1.11285
thorax 13.3676 0.0733791 3.07971
lowerneck -3.29203 -0.347923 -2.5217
upperneck 20.7454 -2.79808 6.01541
head 6.96254 -1.57494 2.11565
rclavicle 4.89507e-015 1.03368e-014
rhumerus -33.6045 -17.3309 -77.3099
rradius 32.1492
rwrist -0.0320244
rhand -11.0375 -411.21
rfingers 7.12502
rthumb -165.016 99.3521
lclavicle 4.89507e-015 1.03368e-014
lhumerus -27.8288 2.24939 82.0695
lradius 21.7469
lwrist -3.59851
lhand -23.6731 -13.8767
lfingers 7.12502
lthumb 2.79303 16.0848
rfemur -22.9084 3.10192 19.3248
rtibia 9.16307
rfoot -17.5176 -6.80284
rtoes -5.30553
lfemur -66.2047 -7.98963 -20.5836
ltibia 85.2606
lfoot -18.9149 6.01052
ltoes -45.6375
197
root 17.2214 16.5143 22.3218 -157.865 -10.1736 174.308
lowerback -18.9659 -0.573298 -7.36868
upperback 2.34157 1.04424 -1.11336
thorax 13.2746 -0.0526164 3.24695
lowerneck -3.21913 -0.339089 -2.49727
upperneck 20.799 -2.7806 5.9052
head 6.96471 -1.57733 2.07733
rclavicle -1.86112e-014 2.26615e-014
rhumerus -33.5287 -17.0855 -77.4269
rradius 32.3431
rwrist -0.147057
rhand -10.9245 -412.623
rfingers 7.12502
rthumb -164.907 97.9468
lclavicle -1.86112e-014 2.26615e-014
lhumerus -27.9369 2.30087 81.9791
lradius 21.6193
lwrist -3.58905
lhand -23.481 -13.4361
lfingers 7.12502
lthumb 2.97862 16.5229
rfemur -22.0866 3.19312 18.9324
rtibia 8.72871
rfoot -17.5293 -7.42784
rtoes -5.00704
lfemur -66.5352 -8.09382 -20.6612
ltibia 86.0099
lfoot -18.9968 6.51552
ltoes -47.34
198
root 17.2078 16.5126 22.3328 -157.388 -9.88996 174.029
lowerback -19.2671 -0.487663 -7.41174
upperback 2.23189 1.20051 -1.28991
thorax 13.3091 0.0200776 3.12134
lowerneck -3.1748 -0.290396 -2.36549
upperneck 20.8697 -2.72077 5.80303
head 6.97475 -1.5501 2.02622
rclavicle 3.42407e-014 5.1684e-015
rhumerus -33.4604 -17.0549 -77.5419
rradius 32.4279
rwrist -0.230748
rhand -10.6917 -412.704
rfingers 7.12502
rthumb -164.683 97.8834
lclavicle 3.42407e-014 5.1684e-015
lhumerus -28.0124 2.22393 81.8368
lradius 21.4174
lwrist -3.68412
lhand -23.3506 -13.3414
lfingers 7.12502
lthumb 3.10448 16.6158
rfemur -22.8528 2.72647 18.5768
rtibia 9.16155
rfoot -17.6256 -6.83038
rtoes -4.83561
lfemur -67.9556 -7.70448 -20.8523
ltibia 87.038
lfoot -19.0259 7.14365
ltoes -49.1283
